<?xml version="1.0" ?>
<!-- Uploaded to: SVG Repo, www.svgrepo.com, Generator: SVG Repo Mixer Tools -->
<svg width="800px" height="800px" viewBox="0 0 512 512" xmlns="http://www.w3.org/2000/svg">
<defs>
<style>.e{fill:#eab84b;}.f{fill:#f2c34e;}.g{fill:#fcd17a;}.h{fill:#8c8c8c;}.i{fill:#cecece;}.j{fill:#bebebe;}.k{fill:#cc993e;}.l{fill:#dfdfdf;}.m{fill:#41a08e;}.n{fill:#365650;}.o{fill:#9b9b9b;}.p{fill:#54aa9a;}.q{fill:#75bbad;}</style>
</defs>
<g id="a"/>
<g id="b"/>
<g id="c">
<g>
<polygon class="j" points="428 367.05566 428 232 420 232 420 367.05566 356.42236 494.21094 363.57764 497.78906 424 376.94434 484.42236 497.78906 491.57764 494.21094 428 367.05566"/>
<path class="i" d="M400,280l-11.25,16.88c-2.96997,4.44995-7.95996,7.12-13.31006,7.12h-91.43994l15.19995-18.23999c3.04004-3.65002,7.55005-5.76001,12.29004-5.76001h88.51001Z"/>
<path class="q" d="M188.30768,228.30768l-68.30768,3.69232-22.51714,11.25854c-25.96266,12.9813-43.85377,37.93067-47.81996,66.68555l-25.6629,186.05591H232l30.74657-173.93994c1.81818-10.28581-1.49814-20.81163-8.88407-28.19756l-65.55482-65.55482Z"/>
<polygon class="j" points="211.78949 320 168 424 224 424 267.33325 320 211.78949 320"/>
<polygon class="j" points="287.33325 288 231.33331 288 288 424 344 424 287.33325 288"/>
<path class="h" d="M216,256l-24,16H40l-16,56h232.50601c4.7485,0,9.25168-2.10918,12.2916-5.75708l30.40485-36.48586c3.0399-3.64789,7.54307-5.75706,12.29155-5.75706h176.506v-24H216Z"/>
<path class="l" d="M264,104h-120V232l70.12506-5.84375c15.08014-1.25671,27.21851-12.90485,29.09546-27.92035l4.77948-38.2359,24-8-8-48Z"/>
<polygon class="g" points="154 152 272 152 264 104 152 104 154 152"/>
<path class="q" d="M200.00006,24h-20.00018c-59.64667,0-107.99988,48.35321-107.99988,107.99988v.00012c0,23.36798,7.57922,46.10559,21.59998,64.79993l26.40002,35.20007h24l12.49615-99.96912c2.00171-16.01373,15.6145-28.03088,31.75287-28.03088h91.75098v-.00012c0-44.18274-35.8172-79.99988-79.99994-79.99988Z"/>
<path class="m" d="M232.67841,30.98242l-14.05298,21.07947c-1.71191,2.56781-2.62543,5.58496-2.62543,8.67108v.00006c0,6.72852,4.30554,12.70215,10.68878,14.8299l7.16846,2.38947c3.93317,1.31104,8.22601,1.00598,11.9342-.84814l24.08881-12.04437c-8.37537-14.99738-21.43445-27.00964-37.20184-34.07745Z"/>
<path class="m" d="M176.04669,24.07953c-28.18933,1.01483-53.62549,12.82629-72.29077,31.43231l6.06641,12.13275c1.42706,2.85413,3.57422,5.28644,6.22931,7.05652l7.4408,4.96051c7.27264,4.84839,16.95642,3.88953,23.13696-2.29102l8-8c3.43872-3.43878,8.10266-5.37061,12.96576-5.37061h.80969c4.8631,0,9.52704-1.93188,12.96576-5.37061,6.18054-6.18054,7.1394-15.86438,2.29102-23.13696l-7.61493-11.4129Z"/>
<path class="m" d="M100.14307,116.14307l-21.5036-21.5036c-4.29285,11.64258-6.63947,24.22717-6.63947,37.36041v.00012c0,15.10522,3.18494,29.93958,9.21149,43.59619l5.28406-1.76135c10.90228-3.63416,19.19232-12.58636,21.97955-23.73529l.50922-2.0368c1.94604-7.78406,1.04333-16.00751-2.54498-23.18408-1.61566-3.23132-3.7417-6.18103-6.29626-8.7356Z"/>
<path class="m" d="M152,168h-4.60724c-7.11755,0-13.76422,3.55719-17.71234,9.47931v.00006c-5.62872,8.44312-4.51556,19.68549,2.65973,26.86078l13.43762,13.43762,6.22223-49.77777Z"/>
<rect class="o" height="24" width="32" x="456" y="256"/>
<rect class="q" height="32" width="80" x="272" y="192"/>
<rect class="m" height="32" width="24" x="272" y="192"/>
<polygon class="m" points="304 224 288 256 312 256 328 224 304 224"/>
<path class="q" d="M168,328l-44.03143,12.58032c-7.69812,2.19946-15.94104,1.43335-23.10193-2.14697l-20.86664-10.43335-24,64,28.29059,16.97437c7.47998,4.48804,16.46796,5.72778,24.88361,3.43262l74.82581-20.40698-16-64Z"/>
<path class="l" d="M252,328h-84l16,64,30.07135-6.01428c6.06305-1.21252,10.88477-5.81018,12.3844-11.80872l5.54425-22.177h20c6.62744,0,12-5.37256,12-12s-5.37256-12-12-12Z"/>
<polygon class="o" points="160 272 128 328 160 328 192 272 160 272"/>
<path class="m" d="M33.84615,424.61538l31.27709,10.4257c7.85183,2.61728,11.56517,11.58208,7.86378,18.98485v.00002c-.65375,1.30748-1.514,2.50102-2.54765,3.53467l-.00002,.00002c-7.97464,7.97464-7.97464,20.90408,0,28.87872l9.56064,9.56064H24l9.84615-71.38462Z"/>
<path class="m" d="M136,496l12.95254-19.4288c1.88448-2.82671,2.10983-6.44646,.59052-9.48509v-.00002c-2.79163-5.58325,.48983-12.29267,6.61088-13.51688l10.73479-2.14696c10.10263-2.02053,20.30771,2.97061,24.91522,12.18563l.00002,.00003c4.78884,9.57768,15.58729,14.54427,25.97575,11.94715l18.64975-4.65532-4.42946,25.10025h-96Z"/>
<path class="f" d="M408,24c-44.18286,0-80,35.8172-80,80s35.81714,80,80,80,80-35.81726,80-80-35.81714-80-80-80Zm-53.33325,80c0-29.45532,23.87817-53.33337,53.33325-53.33337,10.17163,0,19.67822,2.84753,27.76611,7.78894l-73.31055,73.31067c-4.94141-8.08795-7.78882-17.59454-7.78882-27.76624Zm53.33325,53.33331c-10.17163,0-19.67847-2.84747-27.76636-7.78888l73.31104-73.31055c4.94116,8.08783,7.78857,17.59436,7.78857,27.76611,0,29.45514-23.87817,53.33331-53.33325,53.33331Z"/>
<rect class="i" height="8" width="24" x="208" y="348"/>
<path class="l" d="M309.64546,281.1443l-.00005,.00002c-4.7797,2.07537-7.00643,7.60477-4.99897,12.41338l13.15997,31.52298c2.04807,4.90589,7.71402,7.18763,12.59042,5.07031h.00002c4.77973-2.07536,7.00649-7.60478,4.99902-12.41341l-13.15994-31.523c-2.04808-4.90591-7.71406-7.18765-12.59047-5.07029Z"/>
<path class="l" d="M327.13344,273.55511l-.00005,.00002c-4.7797,2.07537-7.00643,7.60477-4.99897,12.41338l13.15997,31.52298c2.04807,4.90589,7.71402,7.18763,12.59042,5.07031h.00002c4.77973-2.07536,7.00649-7.60478,4.99902-12.41341l-13.15994-31.523c-2.04808-4.90591-7.71406-7.18765-12.59047-5.07029Z"/>
<path class="l" d="M292.15973,288.73581l-.00005,.00002c-4.7797,2.07537-7.00643,7.60477-4.99897,12.41338l13.15997,31.52298c2.04807,4.90589,7.71402,7.18763,12.59042,5.07031h.00002c4.77973-2.07536,7.00649-7.60478,4.99902-12.41341l-13.15994-31.523c-2.04808-4.90591-7.71406-7.18765-12.59047-5.07029Z"/>
<path class="l" d="M344.61892,265.9629l-.00005,.00002c-4.7797,2.07537-7.00643,7.60477-4.99897,12.41338l13.15997,31.52298c2.04807,4.90589,7.71402,7.18763,12.59042,5.07031h.00002c4.77973-2.07536,7.00649-7.60478,4.99902-12.41341l-13.15994-31.523c-2.04808-4.90591-7.71406-7.18765-12.59047-5.07029Z"/>
<rect class="i" height="34.15971" transform="translate(-95.14296 143.77731) rotate(-22.65949)" width="8.0003" x="307.22641" y="292.23923"/>
<rect class="i" height="34.16016" transform="translate(-90.95549 149.98456) rotate(-22.65918)" width="8.0003" x="324.81577" y="284.89599"/>
<rect class="i" height="34.15953" transform="translate(-86.68088 156.13269) rotate(-22.65874)" width="8.0003" x="342.3038" y="277.3072"/>
<path class="m" d="M142.13562,395.06787c-3.76031-1.88025-6.13562-5.72363-6.13562-9.92773v-2.28027c0-4.20422-2.37531-8.04761-6.13562-9.92773l-5.75226-2.8761c-2.63293-1.31653-5.68103-1.53308-8.47369-.60217l-12.04895,4.01636c-4.53235,1.51074-7.58948,5.7522-7.58948,10.52979s-3.05713,9.01904-7.58948,10.52979l-18.12482,6.04163,14.00488,8.40295c7.47998,4.48804,16.46796,5.72778,24.88361,3.43262l43.76697-11.9364-10.80554-5.40271Z"/>
<path class="p" d="M100.80127,417.52295c-6.48828,0-12.94189-1.74268-18.56885-5.11914l-28.29053-16.97363,4.11621-6.86035,28.29053,16.97412c6.51074,3.90723,14.44775,5.00195,21.77344,3.00439l74.82568-20.40723,2.10449,7.71777-74.82568,20.40723c-3.08789,.84229-6.26123,1.25684-9.42529,1.25684Z"/>
<path class="p" d="M115.16211,345.81738c-5.53516,0-11.03516-1.28174-16.08447-3.80664l-20.86621-10.43311,3.57715-7.15527,20.86719,10.43311c6.28125,3.14062,13.46094,3.80762,20.21436,1.87891l44.03076-12.58057,2.19824,7.69238-44.03125,12.58057c-3.25488,.92969-6.58691,1.39062-9.90576,1.39062Z"/>
<polygon class="e" points="208 152 200 104 264 104 272 152 208 152"/>
<rect class="k" height="8" width="16" x="224" y="124"/>
<rect class="n" height="8" width="16" x="224" y="124"/>
<path class="n" d="M488,284c2.20898,0,4-1.79102,4-4v-24c0-2.20898-1.79102-4-4-4h-60v-20h-8v20h-101.52783l12-24h21.52783c2.20898,0,4-1.79102,4-4v-32c0-2.20898-1.79102-4-4-4h-80c-2.20898,0-4,1.79102-4,4v32c0,2.20898,1.79102,4,4,4h25.52783l-12,24h-67.87061l-20.42224-20.42224,17.22205-1.43518c16.86719-1.40576,30.6333-14.61572,32.73291-31.41064l4.46631-35.73438,21.60889-7.20264c1.86719-.62256,3.00391-2.51123,2.68066-4.45264l-7.22363-43.34229h11.27783c2.20898,0,4-1.79102,4-4,0-46.31787-37.68213-84-84-84h-20c-61.75684,0-112,50.24316-112,112,0,24.07471,7.95508,47.94043,22.3999,67.19971l23.52435,31.36603-18.23041,9.11542c-13.20166,6.60107-24.73621,16.40454-33.35779,28.31885h-22.33606c-1.78613,0-3.35547,1.18408-3.84619,2.90137l-16,56c-.34473,1.20654-.10303,2.50537,.65283,3.50732,.75584,1.00195,1.93799,1.59131,3.19336,1.59131h18.58289l-22.54529,163.45361,7.9248,1.09277,9.18799-66.61304,26.70801,8.90259c2.6416,.88037,4.76807,2.86084,5.8335,5.43359,1.06592,2.57275,.96289,5.47656-.2832,7.96875-.46143,.92334-1.06641,1.7627-1.79785,2.49365-9.52148,9.52148-9.52148,25.01416,0,34.53613l9.56055,9.56055,5.65723-5.65723-9.56055-9.56055c-6.40234-6.40234-6.40234-16.81934,0-23.22168,1.34082-1.34131,2.4502-2.88037,3.29639-4.57422,2.2832-4.56641,2.47217-9.89014,.51855-14.60693-1.95361-4.71631-5.85156-8.34717-10.69482-9.96191l-28.12573-9.37537,12.39594-89.87073h28.39777l20.02148,10.01074c8.07617,4.03857,17.30615,4.89746,25.99023,2.41602l40.05469-11.44434,14.04736,56.18896-25.8064,7.03821-9.43872-4.71936c-2.4209-1.21045-3.9248-3.64404-3.9248-6.3501v-2.28027c0-5.75586-3.19824-10.93066-8.34668-13.50537l-5.75244-2.87598c-3.60791-1.80371-7.70117-2.09521-11.52734-.81934l-12.04932,4.01611c-6.17529,2.05859-10.32422,7.81543-10.32422,14.32471,0,3.06055-1.95068,5.76709-4.83691,6.729l-16.48755,5.41113-12.61743-7.57031-4.11621,6.86035,28.29053,16.97363c5.62695,3.37646,12.08057,5.11963,18.56885,5.11914,3.16406,0,6.3374-.41455,9.42529-1.25684l63.92706-17.43481-9.84601,23.63013c-.51416,1.23486-.37744,2.64453,.36426,3.75732s1.99072,1.78125,3.32812,1.78125h56c1.61475,0,3.07129-.9707,3.69238-2.46143l21.9967-52.79199-16.74744,94.90137-16.13208,4.02686c-8.6333,2.15918-17.44727-1.89355-21.42822-9.85596-5.39941-10.79785-17.43555-16.68359-29.27734-14.31885l-10.73438,2.14697c-4.15039,.83008-7.59717,3.48633-9.45654,7.28857-1.85986,3.80176-1.84082,8.15381,.05225,11.93945,.87549,1.75,.74463,3.84912-.34082,5.47754l-12.95264,19.42871,6.65625,4.4375,12.95264-19.42871c2.67432-4.01123,2.99609-9.18164,.83984-13.49316-.76807-1.53662-.77588-3.30322-.021-4.84668,.75488-1.54297,2.15381-2.62158,3.83887-2.9585l10.73486-2.14697c8.30957-1.66016,16.76221,2.47119,20.55322,10.05176,5.66992,11.34131,18.21973,17.11475,30.52197,14.03955l12.67102-3.16284-3.35852,19.03149,7.87793,1.39062,23.21191-131.5332,25.15674,60.37646c.62109,1.49023,2.07764,2.46143,3.69238,2.46143h56c1.3374,0,2.58643-.66846,3.32812-1.78125s.87842-2.52246,.36426-3.75732l-33.69189-80.8606c.16748-.06519,.33801-.11719,.50391-.18921,3.38965-1.47192,5.87781-4.20044,7.15747-7.41162,1.6012,.62891,3.27185,.94775,4.94214,.94775,1.82861,0,3.65527-.37646,5.38574-1.12793,3.3894-1.47144,5.87756-4.19934,7.15747-7.40979,1.60229,.62952,3.27368,.94885,4.94458,.94885,1.82861,0,3.65576-.37646,5.38623-1.12793,3.38977-1.47192,5.87793-4.20068,7.15771-7.41199,1.60156,.6283,3.27173,.94763,4.94141,.94763,1.82861-.00049,3.65576-.37646,5.38623-1.12793,4.48096-1.94592,7.37598-6.08887,7.99487-10.63867h.47876c6.70215,0,12.92285-3.32959,16.64111-8.90625l10.0625-15.09375h17.85938v83.05566l-63.57764,127.15527,7.15527,3.57812,60.42236-120.84473,60.42236,120.84473,7.15527-3.57812-63.57764-127.15527v-83.05566h60Zm-196-64h-16v-24h16v24ZM108.12207,408.54834c-7.32568,1.99756-15.2627,.90283-21.77344-3.00439l-6.60126-3.96069,9.92841-3.25854c6.17529-2.05859,10.32422-7.81543,10.32422-14.32471,0-3.06055,1.95068-5.76709,4.854-6.73486l12.04932-4.0166c1.79834-.59961,3.72314-.46338,5.41992,.38525l5.75195,2.87598c2.4209,1.21045,3.9248,3.64404,3.9248,6.3501v2.28027c0,5.75586,3.19824,10.93066,8.34668,13.50537l1.44189,.72095-33.6665,9.18188Zm351.87793-148.54834h24v16h-24v-16Zm-160-64h48v24h-48v-24Zm6.47217,32h15.05566l-12,24h-15.05566l12-24Zm-59.7373-71.79492c-1.46094,.4873-2.5127,1.77051-2.7041,3.29883l-4.7793,38.23584c-1.63281,13.0625-12.33984,23.33691-25.4585,24.43018l-65.21228,5.43433,8.9505-71.60425h89.81891l-.61523,.20508Zm-88.20367-8.20508l1.93414-15.47314c1.74805-13.98242,13.69238-24.52686,27.78369-24.52686h8.36224l6.66663,40h-44.7467Zm52.85754,0l-6.66663-40h55.88922l6.66699,40h-55.88959Zm52.82562-84.57922l-20.21143,10.10608c-2.77979,1.38965-5.93408,1.61328-8.88037,.63086l-7.16846-2.38965c-4.75781-1.58594-7.9541-6.02051-7.9541-11.03516,0-2.30371,.67578-4.53516,1.94873-6.44482l12.17096-18.16864c12.32782,6.22241,22.73627,15.69891,30.09467,27.30133ZM173.97845,28.17865l6.35504,9.53278c3.77783,5.66602,3.02441,13.27393-1.7915,18.08936-2.70752,2.70801-6.30762,4.19922-10.13721,4.19922h-.80957c-5.96631,0-11.57568,2.32324-15.79443,6.54199l-8,8c-4.81445,4.81641-12.42188,5.57031-18.08936,1.7915l-7.44092-4.96045c-2.07227-1.38135-3.75635-3.28906-4.87305-5.52246l-4.7406-9.44885c17.27063-16.3075,40.10632-26.77625,65.32159-28.22308ZM83.49347,170.61908c-4.88898-12.2439-7.49347-25.39362-7.49347-38.61908,0-10.39886,1.54114-20.44312,4.39496-29.92438l16.91949,16.89606c2.25488,2.25439,4.12109,4.84375,5.54736,7.69629,3.15918,6.31738,3.95508,13.57129,2.24219,20.4248l-.50928,2.03662c-2.46875,9.875-9.70752,17.69189-19.36377,20.91064l-1.73749,.57904Zm13.30682,23.78082c-3.86499-5.15308-7.21173-10.66992-10.04346-16.43549l1.00391-.33453c12.26514-4.08887,21.45947-14.01758,24.59473-26.56006l.50928-2.03662c2.17627-8.70557,1.16504-17.91895-2.84766-25.94336-1.81104-3.62256-4.18164-6.91113-7.04736-9.77734l-19.65479-19.62756c4.60175-11.57117,11.22437-22.12604,19.42816-31.23047l3.50153,6.97913c1.73584,3.47119,4.35986,6.44385,7.58838,8.5957l7.44092,4.96045c3.76367,2.50928,8.0752,3.73535,12.36719,3.73535,5.7749-.00049,11.5127-2.22168,15.81689-6.52588l8-8c2.70752-2.70801,6.30762-4.19922,10.13721-4.19922h.80957c5.96631,0,11.57568-2.32324,15.79443-6.54199,7.50244-7.50293,8.67627-19.35596,2.79053-28.18408l-3.51587-5.27393h16.52612c9.38593,0,18.37097,1.72906,26.6778,4.85468l-11.38043,16.98859c-2.15723,3.23584-3.29736,7.00098-3.29736,10.88965,0,8.46338,5.39453,15.94824,13.42383,18.625l7.16846,2.38965c2.04004,.67969,4.1377,1.01709,6.22705,1.01709,3.00586,0,5.99365-.69873,8.76123-2.08252l20.55798-10.27917c4.4613,9.01038,7.20557,19.01562,7.75745,29.59705h-87.64697c-18.11719,0-33.47461,13.55713-35.72217,31.53467l-4.05817,32.46533h-1.07611c-8.47412,0-16.33984,4.20947-21.04053,11.26074-6.66309,9.99463-5.33398,23.41406,3.16113,31.90918l12.05402,12.0426-1.09845,8.78748h-18.46875l-25.19971-33.6001Zm50.6684-22.3999l-4.6449,37.15961-7.65485-7.64789c-5.80713-5.80664-6.71533-14.98047-2.16016-21.81348,3.21338-4.82031,8.59033-7.69824,14.38379-7.69824h.07611Zm-48.19672,74.83643l21.67236-10.83643h23.05566c.11273,0,.22003-.02136,.33063-.03058l.0014,.01691,42.45886-3.53821,22.93042,22.93042-18.93225,12.62146H72.48431c7.37152-8.77783,16.52557-16.03253,26.78766-21.16357ZM29.30273,324l13.71436-48h110.09015l-27.42859,48H29.30273Zm93.56738,12.73438c-6.75342,1.92871-13.93311,1.26172-20.21436-1.87891l-5.71118-2.85547h42.49536l-16.56982,4.73438Zm34.80853-12.73438h-22.78589l27.42859-48h22.78589l-27.42859,48Zm63.65485,96h-47.3335l9.9317-23.83545,.98358-.26831,29.94067-5.98804c7.53955-1.5083,13.61572-7.30225,15.47998-14.76074l4.78711-19.14746h12.87683l-26.66638,64Zm30.6665-72h-44v8h18.87708l-4.30188,17.20703c-1.11865,4.4751-4.76465,7.95166-9.28857,8.85645l-26.3313,5.26611-13.8324-55.32959h78.87708c4.41113,0,8,3.58887,8,8s-3.58887,8-8,8Zm86,72h-47.3335l-28.27417-67.85889c3.42578-2.93689,5.60767-7.28564,5.60767-12.14111,0-3.66699-1.25317-7.03943-3.33594-9.74084,2.75134-1.22913,5.22351-3.07605,7.20898-5.45837l13.86584-16.67383,10.8905,26.08643c1.40625,3.36816,4.04541,5.97412,7.43115,7.33789,.47852,.19287,.96484,.34863,1.45435,.48499l32.48511,77.96375Zm-26.68164-85.92627c-1.36914,.59375-2.88477,.61328-4.26904,.05713-1.38379-.55762-2.4624-1.62256-3.03711-2.99951l-13.16016-31.52295c-1.1582-2.77441,.14307-6.00635,2.90039-7.20361,.70752-.30713,1.4541-.46094,2.20166-.46094,.69873,0,1.39844,.13477,2.06738,.40381,1.38379,.55762,2.4624,1.62256,3.03711,2.99951l13.16016,31.52295c1.1582,2.77441-.14307,6.00586-2.90039,7.20361Zm17.48535-7.5918c-1.36914,.59375-2.88428,.61475-4.26855,.05713-1.38379-.55713-2.4624-1.62256-3.03711-2.99951l-13.16016-31.52295c-1.1582-2.77441,.14307-6.00586,2.90039-7.20312h.00049c.70752-.30713,1.4541-.46094,2.20166-.46094,.69873,0,1.39844,.13428,2.06689,.40381,1.38379,.55713,2.4624,1.62207,3.03711,2.99902l13.16016,31.52344c1.1582,2.77441-.14307,6.00586-2.90088,7.20312Zm17.48828-7.58887c-1.36914,.59375-2.88477,.61377-4.26904,.05713-1.38379-.55762-2.4624-1.62256-3.03711-2.99951l-13.16016-31.52295c-1.1582-2.77441,.14307-6.00635,2.90039-7.20361h.00049c.70752-.30713,1.4541-.46094,2.20166-.46094,.69873,0,1.39795,.13428,2.06689,.40332,1.38367,.55762,2.46265,1.6228,3.03735,2.99963l13.05591,31.27429,.00037,.00073,.10364,.24829c1.1582,2.77441-.14307,6.00586-2.90039,7.20361Zm17.48535-7.59229c-1.36914,.59375-2.88525,.61377-4.26855,.05713-1.38416-.55762-2.46265-1.62231-3.03735-2.99915l-13.05591-31.27429-.00427-.00903-.10022-.23999c-1.1582-2.7749,.14307-6.00586,2.90088-7.20361h.00049c.70703-.30713,1.45361-.46094,2.20117-.46094,.69824,0,1.39795,.13477,2.06689,.40381,1.38379,.55762,2.46289,1.62256,3.0376,2.99951l13.16016,31.52295c1.1582,2.77441-.14355,6.00586-2.90088,7.20361Zm21.64453-16.64453c-2.23096,3.34619-5.96387,5.34375-9.98486,5.34375h-1.80029l-6.67944-16h25.56885l-7.10425,10.65625Zm-21.8042-18.65625l-2.7168-6.50781c-1.40674-3.36865-4.04639-5.97461-7.43262-7.33838-3.38574-1.36377-7.09375-1.31445-10.44238,.14014h-.00049c-3.38977,1.47192-5.87793,4.20056-7.15759,7.41174-3.35535-1.31714-7.0177-1.2572-10.32776,.18054-3.38879,1.47168-5.87671,4.19971-7.15662,7.41028-3.35657-1.31873-7.02014-1.25867-10.33069,.17908-3.39014,1.47168-5.87842,4.2002-7.1582,7.4115-3.35559-1.31787-7.0177-1.25793-10.32764,.17981-5.67957,2.46631-8.81836,8.45874-7.98376,14.34253l-16.85852,20.27319c-2.28662,2.74365-5.64697,4.31738-9.21875,4.31738h-89.6131l28.11194-49.1958,22.20624-14.8042h234.78906v16h-88.38232Z"/>
<path class="n" d="M408,188c46.31787,0,84-37.68213,84-84s-37.68213-84-84-84-84,37.68213-84,84,37.68213,84,84,84Zm0-160c41.90674,0,76,34.09326,76,76s-34.09326,76-76,76-76-34.09326-76-76,34.09326-76,76-76Z"/>
<path class="n" d="M361.98291,135.73828c.15771,.01855,.31592,.02783,.47314,.02783,1.0542,0,2.07324-.41699,2.82812-1.17139l73.31055-73.31055c.8667-.86719,1.28809-2.08398,1.14355-3.30127-.14502-1.21777-.84033-2.30127-1.88672-2.94092-8.96875-5.479-19.29102-8.37549-29.85156-8.37549-31.61377,0-57.3335,25.71973-57.3335,57.3335,0,10.56055,2.89648,20.88281,8.37549,29.85156,.63965,1.04639,1.72314,1.7417,2.94092,1.88672Zm46.01709-81.07178c7.35498,0,14.57373,1.63135,21.14746,4.75098l-65.72998,65.72998c-3.11963-6.57373-4.75098-13.79248-4.75098-21.14746,0-27.20264,22.13086-49.3335,49.3335-49.3335Z"/>
<path class="n" d="M376.26172,150.01709c.14502,1.21777,.84033,2.30127,1.88672,2.94092,8.96875,5.479,19.29102,8.37549,29.85156,8.37549,31.61377,0,57.3335-25.71973,57.3335-57.3335,0-10.56055-2.89648-20.88281-8.37549-29.85156-.63965-1.04639-1.72314-1.7417-2.94092-1.88672-1.21582-.1416-2.43408,.27637-3.30127,1.14355l-73.31055,73.31055c-.8667,.86719-1.28809,2.08398-1.14355,3.30127Zm76.3208-67.16455c3.11963,6.57373,4.75098,13.79248,4.75098,21.14746,0,27.20264-22.13086,49.3335-49.3335,49.3335-7.35498,0-14.57373-1.63135-21.14746-4.75098l65.72998-65.72998Z"/>
</g>
</g>
<g id="d"/>
</svg>